<?xml version="1.0"?><svg fill="#000000" xmlns="http://www.w3.org/2000/svg"  viewBox="0 0 50 50" width="150px" height="150px">    <path d="M 34.414062 1.9921875 C 33.377063 1.9921875 32.3685 2.5301875 31.8125 3.4921875 C 30.9845 4.9271875 31.475156 6.7618437 32.910156 7.5898438 C 33.382156 7.8628437 33.899203 7.9921875 34.408203 7.9921875 C 35.445203 7.9921875 36.453766 7.4541875 37.009766 6.4921875 C 37.837766 5.0571875 37.345156 3.2225313 35.910156 2.3945312 C 35.438156 2.1215312 34.923063 1.9921875 34.414062 1.9921875 z M 17.25 6.5 A 1.75 1.75 0 0 0 15.5 8.25 A 1.75 1.75 0 0 0 17.25 10 A 1.75 1.75 0 0 0 19 8.25 A 1.75 1.75 0 0 0 17.25 6.5 z M 12 7 A 2 2 0 0 0 10 9 A 2 2 0 0 0 12 11 A 2 2 0 0 0 14 9 A 2 2 0 0 0 12 7 z M 22 7 A 1.5 1.5 0 0 0 20.5 8.5 A 1.5 1.5 0 0 0 22 10 A 1.5 1.5 0 0 0 23.5 8.5 A 1.5 1.5 0 0 0 22 7 z M 26 8 A 1.5 1.5 0 0 0 24.5 9.5 A 1.5 1.5 0 0 0 26 11 A 1.5 1.5 0 0 0 27.5 9.5 A 1.5 1.5 0 0 0 26 8 z M 36.558594 9.5058594 A 2.5 2.5 0 0 0 34.058594 12.005859 A 2.5 2.5 0 0 0 36.558594 14.505859 A 2.5 2.5 0 0 0 39.058594 12.005859 A 2.5 2.5 0 0 0 36.558594 9.5058594 z M 29 10 A 1 1 0 0 0 28 11 A 1 1 0 0 0 29 12 A 1 1 0 0 0 30 11 A 1 1 0 0 0 29 10 z M 42.753906 10.773438 A 2.5 2.5 0 0 0 40.253906 13.273438 A 2.5 2.5 0 0 0 42.753906 15.773438 A 2.5 2.5 0 0 0 45.253906 13.273438 A 2.5 2.5 0 0 0 42.753906 10.773438 z M 18 11.5 A 1.75 1.75 0 0 0 16.25 13.25 A 1.75 1.75 0 0 0 18 15 A 1.75 1.75 0 0 0 19.75 13.25 A 1.75 1.75 0 0 0 18 11.5 z M 13 12 A 2 2 0 0 0 11 14 A 2 2 0 0 0 13 16 A 2 2 0 0 0 15 14 A 2 2 0 0 0 13 12 z M 22.5 12 A 1.5 1.5 0 0 0 21 13.5 A 1.5 1.5 0 0 0 22.5 15 A 1.5 1.5 0 0 0 24 13.5 A 1.5 1.5 0 0 0 22.5 12 z M 31 12 A 1 1 0 0 0 30 13 A 1 1 0 0 0 31 14 A 1 1 0 0 0 32 13 A 1 1 0 0 0 31 12 z M 26.5 13.125 A 1.375 1.375 0 0 0 25.125 14.5 A 1.375 1.375 0 0 0 26.5 15.875 A 1.375 1.375 0 0 0 27.875 14.5 A 1.375 1.375 0 0 0 26.5 13.125 z M 7.5 14 A 2.5 2.5 0 0 0 5 16.5 A 2.5 2.5 0 0 0 7.5 19 A 2.5 2.5 0 0 0 10 16.5 A 2.5 2.5 0 0 0 7.5 14 z M 29.75 15.5 A 1.25 1.25 0 0 0 28.5 16.75 A 1.25 1.25 0 0 0 29.75 18 A 1.25 1.25 0 0 0 31 16.75 A 1.25 1.25 0 0 0 29.75 15.5 z M 35.972656 16.017578 A 2 2 0 0 0 33.972656 18.017578 A 2 2 0 0 0 35.972656 20.017578 A 2 2 0 0 0 37.972656 18.017578 A 2 2 0 0 0 35.972656 16.017578 z M 42.169922 17.285156 A 2 2 0 0 0 40.169922 19.285156 A 2 2 0 0 0 42.169922 21.285156 A 2 2 0 0 0 44.169922 19.285156 A 2 2 0 0 0 42.169922 17.285156 z M 20 17.5 A 1.75 1.75 0 0 0 18.25 19.25 A 1.75 1.75 0 0 0 20 21 A 1.75 1.75 0 0 0 21.75 19.25 A 1.75 1.75 0 0 0 20 17.5 z M 15 18 A 2 2 0 0 0 13 20 A 2 2 0 0 0 15 22 A 2 2 0 0 0 17 20 A 2 2 0 0 0 15 18 z M 24.5 18 A 1.5 1.5 0 0 0 23 19.5 A 1.5 1.5 0 0 0 24.5 21 A 1.5 1.5 0 0 0 26 19.5 A 1.5 1.5 0 0 0 24.5 18 z M 47 18.919922 A 2 2 0 0 0 45 20.919922 A 2 2 0 0 0 47 22.919922 A 2 2 0 0 0 49 20.919922 A 2 2 0 0 0 47 18.919922 z M 28.5 19 A 1.5 1.5 0 0 0 27 20.5 A 1.5 1.5 0 0 0 28.5 22 A 1.5 1.5 0 0 0 30 20.5 A 1.5 1.5 0 0 0 28.5 19 z M 9.5 20 A 2.5 2.5 0 0 0 7 22.5 A 2.5 2.5 0 0 0 9.5 25 A 2.5 2.5 0 0 0 12 22.5 A 2.5 2.5 0 0 0 9.5 20 z M 34.123047 20.974609 A 1.75 1.75 0 0 0 32.373047 22.724609 A 1.75 1.75 0 0 0 34.123047 24.474609 A 1.75 1.75 0 0 0 35.873047 22.724609 A 1.75 1.75 0 0 0 34.123047 20.974609 z M 40.318359 22.242188 A 1.75 1.75 0 0 0 38.568359 23.992188 A 1.75 1.75 0 0 0 40.318359 25.742188 A 1.75 1.75 0 0 0 42.068359 23.992188 A 1.75 1.75 0 0 0 40.318359 22.242188 z M 21.119141 23.8125 A 1.5 1.5 0 0 0 19.619141 25.3125 A 1.5 1.5 0 0 0 21.119141 26.8125 A 1.5 1.5 0 0 0 22.619141 25.3125 A 1.5 1.5 0 0 0 21.119141 23.8125 z M 3 24 C 1.343 24 0 25.343 0 27 C 0 28.657 1.343 30 3 30 C 4.657 30 6 28.657 6 27 C 6 25.343 4.657 24 3 24 z M 45.023438 24.091797 A 1.75 1.75 0 0 0 43.273438 25.841797 A 1.75 1.75 0 0 0 45.023438 27.591797 A 1.75 1.75 0 0 0 46.773438 25.841797 A 1.75 1.75 0 0 0 45.023438 24.091797 z M 17.248047 24.855469 A 1.25 1.25 0 0 0 15.998047 26.105469 A 1.25 1.25 0 0 0 17.248047 27.355469 A 1.25 1.25 0 0 0 18.498047 26.105469 A 1.25 1.25 0 0 0 17.248047 24.855469 z M 31.65625 24.996094 A 1.5 1.5 0 0 0 30.15625 26.496094 A 1.5 1.5 0 0 0 31.65625 27.996094 A 1.5 1.5 0 0 0 33.15625 26.496094 A 1.5 1.5 0 0 0 31.65625 24.996094 z M 13.375 25.898438 A 1 1 0 0 0 12.375 26.898438 A 1 1 0 0 0 13.375 27.898438 A 1 1 0 0 0 14.375 26.898438 A 1 1 0 0 0 13.375 25.898438 z M 37.853516 26.263672 A 1.5 1.5 0 0 0 36.353516 27.763672 A 1.5 1.5 0 0 0 37.853516 29.263672 A 1.5 1.5 0 0 0 39.353516 27.763672 A 1.5 1.5 0 0 0 37.853516 26.263672 z M 22.253906 27.777344 A 1.5 1.5 0 0 0 20.753906 29.277344 A 1.5 1.5 0 0 0 22.253906 30.777344 A 1.5 1.5 0 0 0 23.753906 29.277344 A 1.5 1.5 0 0 0 22.253906 27.777344 z M 28.789062 27.960938 A 1.5 1.5 0 0 0 27.289062 29.460938 A 1.5 1.5 0 0 0 28.789062 30.960938 A 1.5 1.5 0 0 0 30.289062 29.460938 A 1.5 1.5 0 0 0 28.789062 27.960938 z M 42.433594 28.330078 A 1.5 1.5 0 0 0 40.933594 29.830078 A 1.5 1.5 0 0 0 42.433594 31.330078 A 1.5 1.5 0 0 0 43.933594 29.830078 A 1.5 1.5 0 0 0 42.433594 28.330078 z M 12.642578 28.630859 A 1 1 0 0 0 11.642578 29.630859 A 1 1 0 0 0 12.642578 30.630859 A 1 1 0 0 0 13.642578 29.630859 A 1 1 0 0 0 12.642578 28.630859 z M 16.923828 28.669922 A 1.375 1.375 0 0 0 15.548828 30.044922 A 1.375 1.375 0 0 0 16.923828 31.419922 A 1.375 1.375 0 0 0 18.298828 30.044922 A 1.375 1.375 0 0 0 16.923828 28.669922 z M 34.986328 29.353516 A 1.375 1.375 0 0 0 33.611328 30.728516 A 1.375 1.375 0 0 0 34.986328 32.103516 A 1.375 1.375 0 0 0 36.361328 30.728516 A 1.375 1.375 0 0 0 34.986328 29.353516 z M 31.412109 31.167969 A 1.25 1.25 0 0 0 30.162109 32.417969 A 1.25 1.25 0 0 0 31.412109 33.667969 A 1.25 1.25 0 0 0 32.662109 32.417969 A 1.25 1.25 0 0 0 31.412109 31.167969 z M 39.566406 31.294922 A 1.5 1.5 0 0 0 38.066406 32.794922 A 1.5 1.5 0 0 0 39.566406 34.294922 A 1.5 1.5 0 0 0 41.066406 32.794922 A 1.5 1.5 0 0 0 39.566406 31.294922 z M 12.84375 31.478516 A 1.5 1.5 0 0 0 11.34375 32.978516 A 1.5 1.5 0 0 0 12.84375 34.478516 A 1.5 1.5 0 0 0 14.34375 32.978516 A 1.5 1.5 0 0 0 12.84375 31.478516 z M 24.287109 31.548828 A 1.75 1.75 0 0 0 22.537109 33.298828 A 1.75 1.75 0 0 0 24.287109 35.048828 A 1.75 1.75 0 0 0 26.037109 33.298828 A 1.75 1.75 0 0 0 24.287109 31.548828 z M 18.058594 32.509766 A 1.5 1.5 0 0 0 16.558594 34.009766 A 1.5 1.5 0 0 0 18.058594 35.509766 A 1.5 1.5 0 0 0 19.558594 34.009766 A 1.5 1.5 0 0 0 18.058594 32.509766 z M 36.767578 33.642578 A 1 1 0 0 0 35.767578 34.642578 A 1 1 0 0 0 36.767578 35.642578 A 1 1 0 0 0 37.767578 34.642578 A 1 1 0 0 0 36.767578 33.642578 z M 34.035156 34.375 A 1 1 0 0 0 33.035156 35.375 A 1 1 0 0 0 34.035156 36.375 A 1 1 0 0 0 35.035156 35.375 A 1 1 0 0 0 34.035156 34.375 z M 27.4375 35.253906 A 2 2 0 0 0 25.4375 37.253906 A 2 2 0 0 0 27.4375 39.253906 A 2 2 0 0 0 29.4375 37.253906 A 2 2 0 0 0 27.4375 35.253906 z M 13.978516 35.441406 A 1.5 1.5 0 0 0 12.478516 36.941406 A 1.5 1.5 0 0 0 13.978516 38.441406 A 1.5 1.5 0 0 0 15.478516 36.941406 A 1.5 1.5 0 0 0 13.978516 35.441406 z M 20.091797 36.28125 A 1.75 1.75 0 0 0 18.341797 38.03125 A 1.75 1.75 0 0 0 20.091797 39.78125 A 1.75 1.75 0 0 0 21.841797 38.03125 A 1.75 1.75 0 0 0 20.091797 36.28125 z M 32.351562 38.267578 A 2.5 2.5 0 0 0 29.851562 40.767578 A 2.5 2.5 0 0 0 32.351562 43.267578 A 2.5 2.5 0 0 0 34.851562 40.767578 A 2.5 2.5 0 0 0 32.351562 38.267578 z M 16.136719 39.431641 A 1.75 1.75 0 0 0 14.386719 41.181641 A 1.75 1.75 0 0 0 16.136719 42.931641 A 1.75 1.75 0 0 0 17.886719 41.181641 A 1.75 1.75 0 0 0 16.136719 39.431641 z M 23.240234 39.986328 A 2 2 0 0 0 21.240234 41.986328 A 2 2 0 0 0 23.240234 43.986328 A 2 2 0 0 0 25.240234 41.986328 A 2 2 0 0 0 23.240234 39.986328 z M 38.996094 40.279297 C 38.487094 40.279297 37.972 40.409641 37.5 40.681641 C 36.065 41.509641 35.573344 43.344297 36.402344 44.779297 C 36.958344 45.741297 37.966906 46.279297 39.003906 46.279297 C 39.512906 46.279297 40.028 46.150906 40.5 45.878906 C 41.935 45.050906 42.426656 43.214297 41.597656 41.779297 C 41.041656 40.817297 40.033094 40.279297 38.996094 40.279297 z M 28.15625 43 A 2.5 2.5 0 0 0 25.65625 45.5 A 2.5 2.5 0 0 0 28.15625 48 A 2.5 2.5 0 0 0 30.65625 45.5 A 2.5 2.5 0 0 0 28.15625 43 z M 19.410156 43.351562 A 2 2 0 0 0 17.410156 45.351562 A 2 2 0 0 0 19.410156 47.351562 A 2 2 0 0 0 21.410156 45.351562 A 2 2 0 0 0 19.410156 43.351562 z"/></svg>